<svg width="166" height="27" viewBox="0 0 166 27" fill="none" xmlns="http://www.w3.org/2000/svg">
<path d="M6.896 20.512C11.392 20.512 14.016 18.448 14.016 15.248C14.016 12.624 12.144 11.12 8.784 10.608L7.408 10.4C6 10.192 4.88 9.968 4.88 9.072C4.88 8.224 5.68 7.664 7.264 7.664C9.008 7.68 10.976 8.32 12.208 8.928L13.616 5.68C11.552 4.672 9.616 4.208 7.136 4.208C3.056 4.208 0.592 6.096 0.592 9.28C0.592 11.92 2.368 13.488 5.952 13.984L7.216 14.16C9.008 14.416 9.792 14.832 9.792 15.584C9.792 16.496 8.864 17.04 6.928 17.04C4.592 17.04 2.976 16.4 1.648 15.52L0 18.688C2.016 20.112 4.784 20.512 6.896 20.512ZM21.488 20.112V11.616C21.488 9.28 22.976 8.112 24.768 8.112C26.672 8.112 27.792 9.344 27.792 11.584V20.112H31.968V11.616C31.968 9.28 33.456 8.112 35.248 8.112C37.136 8.112 38.272 9.344 38.272 11.584V20.112H42.432V10.24C42.432 6.64 39.968 4.192 36.32 4.192C34.288 4.192 32.256 4.88 31.056 6.848C30.016 5.2 28.176 4.192 25.936 4.192C24.176 4.192 22.48 4.784 21.376 6.432V4.608H17.312V20.112H21.488ZM53.232 20.512C55.36 20.512 56.864 19.648 57.872 18.4V20.112H61.952V4.608H57.872V6.32C56.848 5.056 55.36 4.192 53.232 4.192C48.96 4.192 45.728 7.696 45.728 12.352C45.728 17.008 48.96 20.512 53.232 20.512ZM54 16.624C51.552 16.624 50 14.72 50 12.352C50 9.984 51.552 8.08 54 8.08C56.384 8.08 58 9.904 58 12.352C58 14.8 56.384 16.624 54 16.624ZM70.512 20.112V11.664C70.512 9.36 71.84 8.176 73.776 8.176C74.624 8.176 75.616 8.368 76.304 8.672L76.928 4.528C76.352 4.32 75.648 4.192 74.752 4.192C72.848 4.192 71.36 4.848 70.384 6.304V4.608H66.336V20.112H70.512ZM87.36 20.512C89.568 20.512 91.136 19.808 92.496 18.88L90.96 15.616C90.112 16.128 89.04 16.624 88.048 16.624C86.752 16.624 85.728 15.92 85.728 13.984V8.32H91.344V4.608H85.728V0H81.552V4.608H78.56V8.32H81.552V14.32C81.552 18.336 83.52 20.512 87.36 20.512Z" fill="white"/>
<path d="M99.184 26.512V18.496C100.192 19.696 101.664 20.512 103.744 20.512C108.016 20.512 111.248 17.008 111.248 12.352C111.248 7.696 108.016 4.192 103.728 4.192C101.6 4.192 100.112 5.056 99.104 6.32V4.608H95.024V26.512H99.184ZM102.96 16.624C100.592 16.624 98.976 14.8 98.976 12.352C98.976 9.904 100.592 8.08 102.96 8.08C105.424 8.08 106.96 9.984 106.96 12.352C106.96 14.72 105.424 16.624 102.96 16.624ZM121.2 20.512C123.328 20.512 124.832 19.648 125.84 18.4V20.112H129.92V4.608H125.84V6.32C124.816 5.056 123.328 4.192 121.2 4.192C116.928 4.192 113.696 7.696 113.696 12.352C113.696 17.008 116.928 20.512 121.2 20.512ZM121.968 16.624C119.52 16.624 117.968 14.72 117.968 12.352C117.968 9.984 119.52 8.08 121.968 8.08C124.352 8.08 125.968 9.904 125.968 12.352C125.968 14.8 124.352 16.624 121.968 16.624ZM138.16 26.576L150.016 4.608H145.44L141.312 12.576L137.056 4.608H132.32L139.008 16.816L133.584 26.576H138.16ZM159.984 20.512C162.192 20.512 163.76 19.808 165.12 18.88L163.584 15.616C162.736 16.128 161.664 16.624 160.672 16.624C159.376 16.624 158.352 15.92 158.352 13.984V8.32H163.968V4.608H158.352V0H154.176V4.608H151.184V8.32H154.176V14.32C154.176 18.336 156.144 20.512 159.984 20.512Z" fill="#4DA989"/>
</svg>
