<svg width="159" height="28" viewBox="0 0 159 28" fill="none" xmlns="http://www.w3.org/2000/svg">
<path d="M7.08001 21.4C11.576 21.4 14.2 19.336 14.2 16.136C14.2 13.512 12.328 12.008 8.96801 11.496L7.59201 11.288C6.18401 11.08 5.06401 10.856 5.06401 9.96C5.06401 9.112 5.86401 8.552 7.44801 8.552C9.19201 8.568 11.16 9.208 12.392 9.816L13.8 6.568C11.736 5.56 9.80001 5.096 7.32001 5.096C3.24001 5.096 0.776006 6.984 0.776006 10.168C0.776006 12.808 2.55201 14.376 6.13601 14.872L7.40001 15.048C9.19201 15.304 9.97601 15.72 9.97601 16.472C9.97601 17.384 9.04801 17.928 7.11201 17.928C4.77601 17.928 3.16001 17.288 1.83201 16.408L0.184006 19.576C2.20001 21 4.96801 21.4 7.08001 21.4ZM21.672 21V12.504C21.672 10.168 23.16 9 24.952 9C26.856 9 27.976 10.232 27.976 12.472V21H32.152V12.504C32.152 10.168 33.64 9 35.432 9C37.32 9 38.456 10.232 38.456 12.472V21H42.616V11.128C42.616 7.528 40.152 5.08 36.504 5.08C34.472 5.08 32.44 5.768 31.24 7.736C30.2 6.088 28.36 5.08 26.12 5.08C24.36 5.08 22.664 5.672 21.56 7.32V5.496H17.496V21H21.672ZM53.416 21.4C55.544 21.4 57.048 20.536 58.056 19.288V21H62.136V5.496H58.056V7.208C57.032 5.944 55.544 5.08 53.416 5.08C49.144 5.08 45.912 8.584 45.912 13.24C45.912 17.896 49.144 21.4 53.416 21.4ZM54.184 17.512C51.736 17.512 50.184 15.608 50.184 13.24C50.184 10.872 51.736 8.968 54.184 8.968C56.568 8.968 58.184 10.792 58.184 13.24C58.184 15.688 56.568 17.512 54.184 17.512ZM70.696 21V12.552C70.696 10.248 72.024 9.064 73.96 9.064C74.808 9.064 75.8 9.256 76.488 9.56L77.112 5.416C76.536 5.208 75.832 5.08 74.936 5.08C73.032 5.08 71.544 5.736 70.568 7.192V5.496H66.52V21H70.696ZM87.544 21.4C89.752 21.4 91.32 20.696 92.68 19.768L91.144 16.504C90.296 17.016 89.224 17.512 88.232 17.512C86.936 17.512 85.912 16.808 85.912 14.872V9.208H91.528V5.496H85.912V0.888H81.736V5.496H78.744V9.208H81.736V15.208C81.736 19.224 83.704 21.4 87.544 21.4Z" fill="white"/>
<path d="M99.384 21V12.552C99.384 10.248 100.712 9.064 102.648 9.064C103.496 9.064 104.488 9.256 105.176 9.56L105.8 5.416C105.224 5.208 104.52 5.08 103.624 5.08C101.72 5.08 100.232 5.736 99.256 7.192V5.496H95.208V21H99.384ZM114.664 21.4C116.792 21.4 118.296 20.536 119.304 19.288V21H123.384V5.496H119.304V7.208C118.28 5.944 116.792 5.08 114.664 5.08C110.392 5.08 107.16 8.584 107.16 13.24C107.16 17.896 110.392 21.4 114.664 21.4ZM115.432 17.512C112.984 17.512 111.432 15.608 111.432 13.24C111.432 10.872 112.984 8.968 115.432 8.968C117.816 8.968 119.432 10.792 119.432 13.24C119.432 15.688 117.816 17.512 115.432 17.512ZM131.624 27.464L143.48 5.496H138.904L134.776 13.464L130.52 5.496H125.784L132.472 17.704L127.048 27.464H131.624ZM153.448 21.4C155.656 21.4 157.224 20.696 158.584 19.768L157.048 16.504C156.2 17.016 155.128 17.512 154.136 17.512C152.84 17.512 151.816 16.808 151.816 14.872V9.208H157.432V5.496H151.816V0.888H147.64V5.496H144.648V9.208H147.64V15.208C147.64 19.224 149.608 21.4 153.448 21.4Z" fill="#4DA989"/>
</svg>
