<svg width="175" height="23" viewBox="0 0 175 23" fill="none" xmlns="http://www.w3.org/2000/svg">
<path fill-rule="evenodd" clip-rule="evenodd" d="M11.004 5.952V12.624C11.004 16.296 8.412 17.88 5.508 17.88C2.592 17.88 0 16.296 0 12.624V5.952H3.132V12.348C3.132 14.208 4.152 14.964 5.508 14.964C6.852 14.964 7.884 14.208 7.884 12.348V5.952H11.004ZM20.508 5.64C21.18 5.64 21.708 5.736 22.14 5.892L21.672 9C21.156 8.772 20.412 8.628 19.776 8.628C18.324 8.628 17.328 9.516 17.328 11.244V17.58H14.196V5.952H17.232V7.224C17.964 6.132 19.08 5.64 20.508 5.64ZM30.804 5.64C34.02 5.64 36.444 8.268 36.444 11.76C36.444 15.252 34.02 17.88 30.816 17.88C29.208 17.88 28.092 17.232 27.336 16.296V17.58H24.276V0.3H27.396V7.164C28.152 6.252 29.244 5.64 30.804 5.64ZM30.228 8.556C28.452 8.556 27.24 9.924 27.24 11.76C27.24 13.596 28.452 14.964 30.228 14.964C32.076 14.964 33.228 13.536 33.228 11.76C33.228 9.984 32.076 8.556 30.228 8.556ZM50.448 5.952V17.58H47.388V16.296C46.632 17.232 45.504 17.88 43.908 17.88C40.704 17.88 38.28 15.252 38.28 11.76C38.28 8.268 40.704 5.64 43.908 5.64C45.504 5.64 46.62 6.288 47.388 7.236V5.952H50.448ZM44.484 8.556C42.648 8.556 41.484 9.984 41.484 11.76C41.484 13.536 42.648 14.964 44.484 14.964C46.272 14.964 47.484 13.596 47.484 11.76C47.484 9.924 46.272 8.556 44.484 8.556ZM60.204 5.64C62.844 5.64 64.728 7.476 64.728 10.176V17.58H61.596V11.184C61.596 9.504 60.756 8.58 59.328 8.58C57.984 8.58 56.868 9.456 56.868 11.208V17.58H53.736V5.952H56.784V7.32C57.612 6.084 58.884 5.64 60.204 5.64ZM80.388 5.64C83.604 5.64 86.028 8.268 86.028 11.76C86.028 15.252 83.604 17.88 80.4 17.88C78.84 17.88 77.736 17.268 76.98 16.368V22.38H73.86V5.952H76.92V7.236C77.676 6.288 78.792 5.64 80.388 5.64ZM79.812 8.556C78.036 8.556 76.824 9.924 76.824 11.76C76.824 13.596 78.036 14.964 79.812 14.964C81.66 14.964 82.812 13.536 82.812 11.76C82.812 9.984 81.66 8.556 79.812 8.556ZM91.716 0.3V17.58H88.584V0.3H91.716ZM106.452 5.952V17.58H103.392V16.296C102.636 17.232 101.508 17.88 99.912 17.88C96.708 17.88 94.284 15.252 94.284 11.76C94.284 8.268 96.708 5.64 99.912 5.64C101.508 5.64 102.624 6.288 103.392 7.236V5.952H106.452ZM100.488 8.556C98.652 8.556 97.488 9.984 97.488 11.76C97.488 13.536 98.652 14.964 100.488 14.964C102.276 14.964 103.488 13.596 103.488 11.76C103.488 9.924 102.276 8.556 100.488 8.556ZM118.176 5.952V8.736H113.964V12.984C113.964 14.436 114.732 14.964 115.704 14.964C116.448 14.964 117.252 14.592 117.888 14.208L119.04 16.656C118.02 17.352 116.844 17.88 115.188 17.88C112.308 17.88 110.832 16.248 110.832 13.236V8.736H108.588V5.952H110.832V2.496H113.964V5.952H118.176ZM128.7 5.952V8.736H125.088V17.58H121.956V8.736H119.784V5.952H121.956V4.512C121.956 1.788 123.408 0 126.12 0C127.704 0 128.808 0.456 129.696 1.044L128.448 3.48C127.872 3.168 127.188 2.916 126.456 2.916C125.556 2.916 125.088 3.468 125.088 4.548V5.952H128.7ZM136.68 5.64C140.304 5.64 142.98 8.256 142.98 11.76C142.98 15.264 140.304 17.88 136.68 17.88C133.068 17.88 130.404 15.264 130.404 11.76C130.404 8.256 133.068 5.64 136.68 5.64ZM136.68 8.556C134.916 8.556 133.596 9.876 133.596 11.76C133.596 13.644 134.916 14.964 136.68 14.964C138.444 14.964 139.776 13.644 139.776 11.76C139.776 9.876 138.444 8.556 136.68 8.556ZM151.848 5.64C152.52 5.64 153.048 5.736 153.48 5.892L153.012 9C152.496 8.772 151.752 8.628 151.116 8.628C149.664 8.628 148.668 9.516 148.668 11.244V17.58H145.536V5.952H148.572V7.224C149.304 6.132 150.42 5.64 151.848 5.64ZM169.872 5.64C172.608 5.64 174.456 7.476 174.456 10.176V17.58H171.336V11.184C171.336 9.504 170.484 8.58 169.068 8.58C167.724 8.58 166.608 9.456 166.608 11.208V17.58H163.476V11.184C163.476 9.504 162.636 8.58 161.208 8.58C159.864 8.58 158.748 9.456 158.748 11.208V17.58H155.616V5.952H158.664V7.32C159.492 6.084 160.764 5.64 162.084 5.64C163.764 5.64 165.144 6.396 165.924 7.632C166.824 6.156 168.348 5.64 169.872 5.64Z" fill="#E6E9EA"/>
</svg>
